# File created by Blade
# Date/Time:  Mon Sep 22 16:09:39 2014
# Frame Rate: 120.000 fps
#------------------------------------------------------
:FULLY-SPECIFIED
:DEGREES
1244
root 2.607687 37.005558 2.170003 0.844663 -1.985184 1.680864
RightUpLeg 6.938332 -6.631483 -2.658979
RightLeg -4.917031 -0.000000 0.000000
RightFoot -13.460336 -16.156581 16.053908
RightToeBase 14.883145 -0.000000 -0.000000
LeftUpLeg 4.343276 0.061398 1.758152
LeftLeg -1.813209 -0.000000 0.000000
LeftFoot -9.891265 13.298423 -16.919224
LeftToeBase 9.567568 -0.000000 -0.000000
Spine 0.167510 1.557835 0.069192
RightShoulder 7.000158 -26.111475 -6.564891
RightArm 20.241112 -0.305974 81.986147
RightForeArm 91.299208 0.000000 85.383555
RightHand 12.280682 -0.000000 2.342928
RightHandThumb1 -24.326973 -0.000000 -32.862282
LeftShoulder -18.470172 38.440599 -2.125460
LeftArm 47.146393 25.737627 -55.646376
LeftForeArm 19.566286 -0.000000 31.502345
LeftHand -12.883780 -0.000000 -10.674995
LeftHandThumb1 -26.253704 0.000000 33.147579
Head 3.991747 1.893750 4.830089
1245
root 2.607270 37.005220 2.174127 0.825273 -1.998145 1.685015
RightUpLeg 6.968163 -6.649822 -2.671082
RightLeg -4.924954 -0.000000 0.000000
RightFoot -13.443474 -16.107389 16.047345
RightToeBase 14.832989 -0.000000 -0.000000
LeftUpLeg 4.372078 0.068358 1.754035
LeftLeg -1.815197 -0.000000 0.000000
LeftFoot -9.891739 13.295073 -16.936824
LeftToeBase 9.556504 -0.000000 -0.000000
Spine 0.183304 1.569154 0.056215
RightShoulder 6.995532 -26.151064 -6.589834
RightArm 20.278361 -0.307558 81.964085
RightForeArm 91.311913 -0.000000 85.442706
RightHand 12.190251 -0.000000 2.268960
RightHandThumb1 -24.326973 -0.000000 -32.862282
LeftShoulder -18.477571 38.435558 -2.154830
LeftArm 47.147596 25.717249 -55.632960
LeftForeArm 19.629421 -0.000000 31.497417
LeftHand -12.908225 -0.000000 -10.842401
LeftHandThumb1 -26.253704 0.000000 33.147579
Head 4.016262 1.893937 4.813725
1246
root 2.603388 37.005110 2.172909 0.836088 -1.997951 1.684103
RightUpLeg 6.952948 -6.662895 -2.662925
RightLeg -4.921749 -0.000000 0.000000
RightFoot -13.456711 -16.108118 16.039124
RightToeBase 14.900821 -0.000000 -0.000000
LeftUpLeg 4.357953 0.063056 1.762006
LeftLeg -1.812099 -0.000000 0.000000
LeftFoot -9.887585 13.298342 -16.937790
LeftToeBase 9.566229 -0.000000 -0.000000
Spine 0.172337 1.575805 0.035587
RightShoulder 6.995324 -26.124072 -6.584271
RightArm 20.240025 -0.271461 81.980821
RightForeArm 91.351164 -0.000000 85.532547
RightHand 12.003738 -0.000000 2.110775
RightHandThumb1 -24.326973 -0.000000 -32.862282
LeftShoulder -18.461226 38.436714 -2.150511
LeftArm 47.156289 25.657786 -55.673582
LeftForeArm 19.668035 -0.000000 31.429105
LeftHand -12.875051 -0.000000 -10.837615
LeftHandThumb1 -26.253704 0.000000 33.147579
Head 4.041411 1.890588 4.815038
1247
root 2.598823 37.004439 2.172300 0.844454 -2.015112 1.675969
RightUpLeg 6.940634 -6.636535 -2.644885
RightLeg -4.919692 -0.000000 0.000000
RightFoot -13.452623 -16.111921 16.039734
RightToeBase 14.860885 -0.000000 -0.000000
LeftUpLeg 4.347269 0.101077 1.778821
LeftLeg -1.803957 -0.000000 0.000000
LeftFoot -9.893811 13.273376 -16.936342
LeftToeBase 9.548106 -0.000000 -0.000000
Spine 0.161559 1.588572 0.024292
RightShoulder 7.004969 -26.141621 -6.597421
RightArm 20.250206 -0.260925 81.967417
RightForeArm 91.427535 -0.000000 85.622731
RightHand 12.060090 -0.000000 2.139048
RightHandThumb1 -24.326973 -0.000000 -32.862282
LeftShoulder -18.452284 38.416861 -2.154267
LeftArm 47.113285 25.619282 -55.704421
LeftForeArm 19.716975 -0.000000 31.427765
LeftHand -12.916954 -0.000000 -10.829407
LeftHandThumb1 -26.253704 0.000000 33.147579
Head 4.072188 1.900619 4.814935
1248
root 2.598306 37.003293 2.174720 0.848143 -2.017164 1.683194
RightUpLeg 6.945279 -6.648739 -2.652806
RightLeg -4.929728 -0.000000 0.000000
RightFoot -13.417909 -16.118899 15.959599
RightToeBase 14.765024 -0.000000 -0.000000
LeftUpLeg 4.349992 0.095535 1.770700
LeftLeg -1.808614 -0.000000 0.000000
LeftFoot -9.896727 13.278705 -16.931681
LeftToeBase 9.527147 -0.000000 -0.000000
Spine 0.147995 1.588268 0.009231
RightShoulder 6.998865 -26.140681 -6.618710
RightArm 20.234331 -0.269594 81.947437
RightForeArm 91.473570 -0.000000 85.719495
RightHand 12.108750 -0.000000 2.048289
RightHandThumb1 -24.326973 -0.000000 -32.862282
LeftShoulder -18.456297 38.427569 -2.181006
LeftArm 47.104536 25.574298 -55.709163
LeftForeArm 19.739540 -0.000000 31.411263
LeftHand -12.947827 -0.000000 -10.791592
LeftHandThumb1 -26.253704 0.000000 33.147579
Head 4.112763 1.908520 4.799310
1249
root 2.592816 37.003021 2.172576 0.865613 -2.013585 1.674632
RightUpLeg 6.926612 -6.634392 -2.632491
RightLeg -4.931465 -0.000000 0.000000
RightFoot -13.467811 -16.120867 16.017298
RightToeBase 14.913482 -0.000000 -0.000000
LeftUpLeg 4.325566 0.095819 1.788978
LeftLeg -1.799498 -0.000000 0.000000
LeftFoot -9.901195 13.272609 -16.930764
LeftToeBase 9.546699 -0.000000 -0.000000
Spine 0.130664 1.591922 -0.007322
RightShoulder 6.977674 -26.134675 -6.611846
RightArm 20.228257 -0.255908 81.941958
RightForeArm 91.467054 -0.000000 85.804569
RightHand 12.025802 0.000000 1.868276
RightHandThumb1 -24.326973 -0.000000 -32.862282
LeftShoulder -18.435150 38.430666 -2.166185
LeftArm 47.114016 25.508135 -55.746679
LeftForeArm 19.764297 -0.000000 31.327566
LeftHand -12.917772 -0.000000 -10.882029
LeftHandThumb1 -26.253704 0.000000 33.147579
Head 4.135770 1.908283 4.808494
1250
root 2.590593 37.002223 2.174879 0.858727 -2.027144 1.674589
RightUpLeg 6.936256 -6.643235 -2.634082
RightLeg -4.930477 -0.000000 0.000000
RightFoot -13.467234 -16.080688 16.024242
RightToeBase 14.879663 -0.000000 -0.000000
LeftUpLeg 4.341209 0.135231 1.793659
LeftLeg -1.806581 -0.000000 0.000000
LeftFoot -9.901237 13.249510 -16.923159
LeftToeBase 9.534554 -0.000000 -0.000000
Spine 0.134187 1.592232 -0.019449
RightShoulder 6.979068 -26.126556 -6.630750
RightArm 20.227695 -0.218779 81.964318
RightForeArm 91.474588 -0.000000 85.872884
RightHand 11.950314 -0.000000 1.894374
RightHandThumb1 -24.326973 -0.000000 -32.862282
LeftShoulder -18.458233 38.417483 -2.205710
LeftArm 47.055770 25.473547 -55.745801
LeftForeArm 19.775756 -0.000000 31.374099
LeftHand -13.003539 -0.000000 -10.736724
LeftHandThumb1 -26.253704 0.000000 33.147579
Head 4.173258 1.908511 4.790699
1251
root 2.586585 37.002216 2.174157 0.871408 -2.024577 1.664684
RightUpLeg 6.928337 -6.630992 -2.614574
RightLeg -4.939031 -0.000000 0.000000
RightFoot -13.468786 -16.096650 16.033746
RightToeBase 14.889698 -0.000000 -0.000000
LeftUpLeg 4.326050 0.139505 1.811250
LeftLeg -1.803697 -0.000000 0.000000
LeftFoot -9.896969 13.242657 -16.926683
LeftToeBase 9.545072 -0.000000 -0.000000
Spine 0.114664 1.570411 -0.022530
RightShoulder 6.979965 -26.110266 -6.647621
RightArm 20.221019 -0.190208 81.977325
RightForeArm 91.385299 -0.000000 85.942410
RightHand 11.906313 -0.000000 2.053091
RightHandThumb1 -24.326973 -0.000000 -32.862282
LeftShoulder -18.468427 38.401652 -2.232637
LeftArm 47.007243 25.419876 -55.770879
LeftForeArm 19.826892 0.000000 31.354456
LeftHand -13.035437 -0.000000 -10.742478
LeftHandThumb1 -26.253704 0.000000 33.147579
Head 4.219990 1.922356 4.776153
1252
root 2.582435 37.001840 2.174439 0.883119 -2.028703 1.664197
RightUpLeg 6.916191 -6.620765 -2.605517
RightLeg -4.939789 -0.000000 0.000000
RightFoot -13.467722 -16.112449 16.017859
RightToeBase 14.901333 -0.000000 -0.000000
LeftUpLeg 4.317745 0.145640 1.818538
LeftLeg -1.805540 -0.000000 0.000000
LeftFoot -9.903942 13.235724 -16.944204
LeftToeBase 9.547020 -0.000000 -0.000000
Spine 0.094007 1.563401 -0.041842
RightShoulder 6.959025 -26.120274 -6.651398
RightArm 20.261472 -0.197812 81.971920
RightForeArm 91.322791 0.000000 85.965773
RightHand 12.167631 -0.000000 2.183523
RightHandThumb1 -24.326973 -0.000000 -32.862282
LeftShoulder -18.480741 38.414929 -2.261277
LeftArm 46.980923 25.353831 -55.777074
LeftForeArm 19.841853 -0.000000 31.344525
LeftHand -13.058551 -0.000000 -10.688153
LeftHandThumb1 -26.253704 0.000000 33.147579
Head 4.271327 1.920579 4.780373
